<mxfile host="Electron" modified="2024-03-02T14:05:16.163Z" agent="Mozilla/5.0 (Macintosh; Intel Mac OS X 10_15_7) AppleWebKit/537.36 (KHTML, like Gecko) draw.io/23.1.5 Chrome/120.0.6099.109 Electron/28.1.0 Safari/537.36" etag="EfBR2jsGnC16K8cgAHcw" version="23.1.5" type="device" pages="3">
  <diagram name="Gleisplan" id="zJip0s4-7nBwFcM3D43l">
    <mxGraphModel dx="1834" dy="808" grid="1" gridSize="10" guides="1" tooltips="1" connect="1" arrows="1" fold="1" page="0" pageScale="1" pageWidth="827" pageHeight="1169" math="0" shadow="0">
      <root>
        <mxCell id="0" />
        <mxCell id="1" parent="0" />
        <mxCell id="wtOsM4EygqMZWqcvGImy-1" style="vsdxID=5;edgeStyle=none;startArrow=none;endArrow=none;startSize=5;endSize=5;strokeWidth=2;strokeColor=#000000;spacingTop=0;spacingBottom=0;spacingLeft=0;spacingRight=0;verticalAlign=middle;html=1;labelBackgroundColor=none;rounded=0;" parent="1" edge="1">
          <mxGeometry y="-1118" relative="1" as="geometry">
            <mxPoint y="-1118" as="offset" />
            <Array as="points">
              <mxPoint x="160" y="280" />
              <mxPoint x="400" y="280" />
            </Array>
            <mxPoint x="140" y="300" as="sourcePoint" />
            <mxPoint x="420" y="300" as="targetPoint" />
          </mxGeometry>
        </mxCell>
        <UserObject label="" Row_1="" id="wtOsM4EygqMZWqcvGImy-2">
          <mxCell style="vsdxID=5;fillColor=none;gradientColor=none;strokeColor=none;points=[];labelBackgroundColor=none;rounded=0;html=1;whiteSpace=wrap;" parent="1" vertex="1">
            <mxGeometry x="21" y="302" width="89" height="12" as="geometry" />
          </mxCell>
        </UserObject>
        <mxCell id="wtOsM4EygqMZWqcvGImy-3" value="&lt;div style=&quot;font-size: 1px&quot;&gt;&lt;p style=&quot;text-align:right;margin-left:0;margin-right:0;margin-top:0px;margin-bottom:0px;text-indent:0;vertical-align:middle;direction:ltr;&quot;&gt;&lt;font style=&quot;font-size:11.29px;font-family:Arial;color:#000000;direction:ltr;letter-spacing:0px;line-height:120%;opacity:1&quot;&gt;A&amp;nbsp;&lt;/font&gt;&lt;/p&gt;&lt;/div&gt;" style="verticalAlign=middle;align=right;overflow=width;vsdxID=13;fillColor=none;gradientColor=none;shape=stencil(nZBLDoAgDERP0z3SIyjew0SURgSD+Lu9kMZoXLhwN9O+tukAlrNpJg1SzDH4QW/URgNYgZTkjA4UkwJUgGXng+6DX1zLfmoymdXo17xh5zmRJ6Q42BWCfc2oJfdAr+Yv+AP9Cb7OJ3H/2JG1HNGz/84klThPVCc=);strokeColor=none;spacingTop=-3;spacingBottom=-3;spacingLeft=-2;spacingRight=-2;points=[];labelBackgroundColor=none;rounded=0;html=1;whiteSpace=wrap;" parent="wtOsM4EygqMZWqcvGImy-2" vertex="1">
          <mxGeometry width="63" height="12" as="geometry" />
        </mxCell>
        <mxCell id="wtOsM4EygqMZWqcvGImy-4" style="vsdxID=14;fillColor=none;gradientColor=none;strokeColor=none;points=[];labelBackgroundColor=none;rounded=0;html=1;whiteSpace=wrap;" parent="wtOsM4EygqMZWqcvGImy-2" vertex="1">
          <mxGeometry x="63" y="2" width="26" height="8" as="geometry" />
        </mxCell>
        <mxCell id="wtOsM4EygqMZWqcvGImy-5" style="vsdxID=17;fillColor=#000000;gradientColor=none;shape=stencil(nZBLDoAgDERP0z3SIyjew0SURgSD+Lu9kMZoXLhwN9O+tukAlrNpJg1SzDH4QW/URgNYgZTkjA4UkwJUgGXng+6DX1zLfmoymdXo17xh5zmRJ6Q42BWCfc2oJfdAr+Yv+AP9Cb7OJ3H/2JG1HNGz/84klThPVCc=);strokeColor=none;points=[];labelBackgroundColor=none;rounded=0;html=1;whiteSpace=wrap;" parent="wtOsM4EygqMZWqcvGImy-4" vertex="1">
          <mxGeometry x="14" width="8" height="8" as="geometry" />
        </mxCell>
        <mxCell id="wtOsM4EygqMZWqcvGImy-6" style="vsdxID=18;fillColor=#000000;gradientColor=none;shape=stencil(vVHLDsIgEPwajiQI6RfU+h8bu22JCGRB2/69kG1iazx58DazM/vIjjBtmiCi0CplCjecbZ8nYc5Ca+snJJsLEqYTph0C4Ujh4XvmEaqzont41gkL96naodXKrGF6YSfQtUi0OXXDVlqPfJNP6usotUhYbJIUMmQb/GGrAxpRljVycDBuc1hKM2LclX8/7H9nFfB+82Cd45T2+mcspcSRmu4F);strokeColor=none;points=[];labelBackgroundColor=none;rounded=0;html=1;whiteSpace=wrap;" parent="wtOsM4EygqMZWqcvGImy-4" vertex="1">
          <mxGeometry x="18" width="8" height="8" as="geometry" />
        </mxCell>
        <mxCell id="wtOsM4EygqMZWqcvGImy-7" value="" style="vsdxID=15;edgeStyle=none;startArrow=none;endArrow=none;startSize=5;endSize=5;strokeColor=#000000;spacingTop=0;spacingBottom=0;spacingLeft=0;spacingRight=0;verticalAlign=middle;html=1;labelBackgroundColor=none;rounded=0;" parent="wtOsM4EygqMZWqcvGImy-4" edge="1">
          <mxGeometry relative="1" as="geometry">
            <Array as="points" />
            <mxPoint y="4" as="sourcePoint" />
            <mxPoint x="14" y="4" as="targetPoint" />
          </mxGeometry>
        </mxCell>
        <mxCell id="wtOsM4EygqMZWqcvGImy-8" value="" style="vsdxID=16;edgeStyle=none;startArrow=none;endArrow=none;startSize=5;endSize=5;strokeColor=#000000;spacingTop=0;spacingBottom=0;spacingLeft=0;spacingRight=0;verticalAlign=middle;html=1;labelBackgroundColor=none;rounded=0;" parent="wtOsM4EygqMZWqcvGImy-4" edge="1">
          <mxGeometry relative="1" as="geometry">
            <Array as="points" />
            <mxPoint y="2" as="sourcePoint" />
            <mxPoint y="6" as="targetPoint" />
          </mxGeometry>
        </mxCell>
        <UserObject label="" Row_1="" id="wtOsM4EygqMZWqcvGImy-10">
          <mxCell style="vsdxID=5;fillColor=none;gradientColor=none;strokeColor=none;points=[];labelBackgroundColor=none;rounded=0;html=1;whiteSpace=wrap;rotation=-180;" parent="1" vertex="1">
            <mxGeometry x="470" y="286" width="89" height="12" as="geometry" />
          </mxCell>
        </UserObject>
        <mxCell id="wtOsM4EygqMZWqcvGImy-11" value="&lt;div style=&quot;font-size: 1px&quot;&gt;&lt;p style=&quot;margin: 0px; text-indent: 0px; vertical-align: middle; direction: ltr;&quot;&gt;&lt;font style=&quot;font-size:11.29px;font-family:Arial;color:#000000;direction:ltr;letter-spacing:0px;line-height:120%;opacity:1&quot;&gt;&amp;nbsp;F&lt;/font&gt;&lt;/p&gt;&lt;/div&gt;" style="verticalAlign=middle;align=left;overflow=width;vsdxID=13;fillColor=none;gradientColor=none;shape=stencil(nZBLDoAgDERP0z3SIyjew0SURgSD+Lu9kMZoXLhwN9O+tukAlrNpJg1SzDH4QW/URgNYgZTkjA4UkwJUgGXng+6DX1zLfmoymdXo17xh5zmRJ6Q42BWCfc2oJfdAr+Yv+AP9Cb7OJ3H/2JG1HNGz/84klThPVCc=);strokeColor=none;spacingTop=-3;spacingBottom=-3;spacingLeft=-2;spacingRight=-2;points=[];labelBackgroundColor=none;rounded=0;html=1;whiteSpace=wrap;rotation=0;" parent="wtOsM4EygqMZWqcvGImy-10" vertex="1">
          <mxGeometry x="26" width="63" height="12" as="geometry" />
        </mxCell>
        <mxCell id="wtOsM4EygqMZWqcvGImy-12" style="vsdxID=14;fillColor=none;gradientColor=none;strokeColor=none;points=[];labelBackgroundColor=none;rounded=0;html=1;whiteSpace=wrap;rotation=-180;" parent="wtOsM4EygqMZWqcvGImy-10" vertex="1">
          <mxGeometry y="2" width="26" height="8" as="geometry" />
        </mxCell>
        <mxCell id="wtOsM4EygqMZWqcvGImy-13" style="vsdxID=17;fillColor=#000000;gradientColor=none;shape=stencil(nZBLDoAgDERP0z3SIyjew0SURgSD+Lu9kMZoXLhwN9O+tukAlrNpJg1SzDH4QW/URgNYgZTkjA4UkwJUgGXng+6DX1zLfmoymdXo17xh5zmRJ6Q42BWCfc2oJfdAr+Yv+AP9Cb7OJ3H/2JG1HNGz/84klThPVCc=);strokeColor=none;points=[];labelBackgroundColor=none;rounded=0;html=1;whiteSpace=wrap;rotation=-180;" parent="wtOsM4EygqMZWqcvGImy-12" vertex="1">
          <mxGeometry x="4" width="8" height="8" as="geometry" />
        </mxCell>
        <mxCell id="wtOsM4EygqMZWqcvGImy-14" style="vsdxID=18;fillColor=#000000;gradientColor=none;shape=stencil(vVHLDsIgEPwajiQI6RfU+h8bu22JCGRB2/69kG1iazx58DazM/vIjjBtmiCi0CplCjecbZ8nYc5Ca+snJJsLEqYTph0C4Ujh4XvmEaqzont41gkL96naodXKrGF6YSfQtUi0OXXDVlqPfJNP6usotUhYbJIUMmQb/GGrAxpRljVycDBuc1hKM2LclX8/7H9nFfB+82Cd45T2+mcspcSRmu4F);strokeColor=none;points=[];labelBackgroundColor=none;rounded=0;html=1;whiteSpace=wrap;rotation=-180;" parent="wtOsM4EygqMZWqcvGImy-12" vertex="1">
          <mxGeometry width="8" height="8" as="geometry" />
        </mxCell>
        <mxCell id="wtOsM4EygqMZWqcvGImy-15" value="" style="vsdxID=15;edgeStyle=none;startArrow=none;endArrow=none;startSize=5;endSize=5;strokeColor=#000000;spacingTop=0;spacingBottom=0;spacingLeft=0;spacingRight=0;verticalAlign=middle;html=1;labelBackgroundColor=none;rounded=0;" parent="wtOsM4EygqMZWqcvGImy-12" edge="1">
          <mxGeometry relative="1" as="geometry">
            <Array as="points" />
            <mxPoint x="26" y="4" as="sourcePoint" />
            <mxPoint x="12" y="4" as="targetPoint" />
          </mxGeometry>
        </mxCell>
        <mxCell id="wtOsM4EygqMZWqcvGImy-16" value="" style="vsdxID=16;edgeStyle=none;startArrow=none;endArrow=none;startSize=5;endSize=5;strokeColor=#000000;spacingTop=0;spacingBottom=0;spacingLeft=0;spacingRight=0;verticalAlign=middle;html=1;labelBackgroundColor=none;rounded=0;" parent="wtOsM4EygqMZWqcvGImy-12" edge="1">
          <mxGeometry relative="1" as="geometry">
            <Array as="points" />
            <mxPoint x="26" y="6" as="sourcePoint" />
            <mxPoint x="26" y="2" as="targetPoint" />
          </mxGeometry>
        </mxCell>
        <UserObject label="" Row_1="" id="wtOsM4EygqMZWqcvGImy-17">
          <mxCell style="vsdxID=5;fillColor=none;gradientColor=none;strokeColor=none;points=[];labelBackgroundColor=none;rounded=0;html=1;whiteSpace=wrap;" parent="1" vertex="1">
            <mxGeometry x="280" y="302" width="89" height="12" as="geometry" />
          </mxCell>
        </UserObject>
        <mxCell id="wtOsM4EygqMZWqcvGImy-18" value="&lt;div style=&quot;font-size: 1px&quot;&gt;&lt;p style=&quot;text-align:right;margin-left:0;margin-right:0;margin-top:0px;margin-bottom:0px;text-indent:0;vertical-align:middle;direction:ltr;&quot;&gt;&lt;font style=&quot;font-size:11.29px;font-family:Arial;color:#000000;direction:ltr;letter-spacing:0px;line-height:120%;opacity:1&quot;&gt;P1&amp;nbsp;&lt;/font&gt;&lt;/p&gt;&lt;/div&gt;" style="verticalAlign=middle;align=right;overflow=width;vsdxID=13;fillColor=none;gradientColor=none;shape=stencil(nZBLDoAgDERP0z3SIyjew0SURgSD+Lu9kMZoXLhwN9O+tukAlrNpJg1SzDH4QW/URgNYgZTkjA4UkwJUgGXng+6DX1zLfmoymdXo17xh5zmRJ6Q42BWCfc2oJfdAr+Yv+AP9Cb7OJ3H/2JG1HNGz/84klThPVCc=);strokeColor=none;spacingTop=-3;spacingBottom=-3;spacingLeft=-2;spacingRight=-2;points=[];labelBackgroundColor=none;rounded=0;html=1;whiteSpace=wrap;" parent="wtOsM4EygqMZWqcvGImy-17" vertex="1">
          <mxGeometry width="63" height="12" as="geometry" />
        </mxCell>
        <mxCell id="wtOsM4EygqMZWqcvGImy-19" style="vsdxID=14;fillColor=none;gradientColor=none;strokeColor=none;points=[];labelBackgroundColor=none;rounded=0;html=1;whiteSpace=wrap;" parent="wtOsM4EygqMZWqcvGImy-17" vertex="1">
          <mxGeometry x="63" y="2" width="26" height="8" as="geometry" />
        </mxCell>
        <mxCell id="wtOsM4EygqMZWqcvGImy-20" style="vsdxID=17;fillColor=#000000;gradientColor=none;shape=stencil(nZBLDoAgDERP0z3SIyjew0SURgSD+Lu9kMZoXLhwN9O+tukAlrNpJg1SzDH4QW/URgNYgZTkjA4UkwJUgGXng+6DX1zLfmoymdXo17xh5zmRJ6Q42BWCfc2oJfdAr+Yv+AP9Cb7OJ3H/2JG1HNGz/84klThPVCc=);strokeColor=none;points=[];labelBackgroundColor=none;rounded=0;html=1;whiteSpace=wrap;" parent="wtOsM4EygqMZWqcvGImy-19" vertex="1">
          <mxGeometry x="14" width="8" height="8" as="geometry" />
        </mxCell>
        <mxCell id="wtOsM4EygqMZWqcvGImy-21" style="vsdxID=18;fillColor=#000000;gradientColor=none;shape=stencil(vVHLDsIgEPwajiQI6RfU+h8bu22JCGRB2/69kG1iazx58DazM/vIjjBtmiCi0CplCjecbZ8nYc5Ca+snJJsLEqYTph0C4Ujh4XvmEaqzont41gkL96naodXKrGF6YSfQtUi0OXXDVlqPfJNP6usotUhYbJIUMmQb/GGrAxpRljVycDBuc1hKM2LclX8/7H9nFfB+82Cd45T2+mcspcSRmu4F);strokeColor=none;points=[];labelBackgroundColor=none;rounded=0;html=1;whiteSpace=wrap;" parent="wtOsM4EygqMZWqcvGImy-19" vertex="1">
          <mxGeometry x="18" width="8" height="8" as="geometry" />
        </mxCell>
        <mxCell id="wtOsM4EygqMZWqcvGImy-22" value="" style="vsdxID=15;edgeStyle=none;startArrow=none;endArrow=none;startSize=5;endSize=5;strokeColor=#000000;spacingTop=0;spacingBottom=0;spacingLeft=0;spacingRight=0;verticalAlign=middle;html=1;labelBackgroundColor=none;rounded=0;" parent="wtOsM4EygqMZWqcvGImy-19" edge="1">
          <mxGeometry relative="1" as="geometry">
            <Array as="points" />
            <mxPoint y="4" as="sourcePoint" />
            <mxPoint x="14" y="4" as="targetPoint" />
          </mxGeometry>
        </mxCell>
        <mxCell id="wtOsM4EygqMZWqcvGImy-23" value="" style="vsdxID=16;edgeStyle=none;startArrow=none;endArrow=none;startSize=5;endSize=5;strokeColor=#000000;spacingTop=0;spacingBottom=0;spacingLeft=0;spacingRight=0;verticalAlign=middle;html=1;labelBackgroundColor=none;rounded=0;" parent="wtOsM4EygqMZWqcvGImy-19" edge="1">
          <mxGeometry relative="1" as="geometry">
            <Array as="points" />
            <mxPoint y="2" as="sourcePoint" />
            <mxPoint y="6" as="targetPoint" />
          </mxGeometry>
        </mxCell>
        <UserObject label="" Row_1="" id="wtOsM4EygqMZWqcvGImy-24">
          <mxCell style="vsdxID=5;fillColor=none;gradientColor=none;strokeColor=none;points=[];labelBackgroundColor=none;rounded=0;html=1;whiteSpace=wrap;" parent="1" vertex="1">
            <mxGeometry x="280" y="266" width="89" height="12" as="geometry" />
          </mxCell>
        </UserObject>
        <mxCell id="wtOsM4EygqMZWqcvGImy-25" value="&lt;div style=&quot;font-size: 1px&quot;&gt;&lt;p style=&quot;text-align:right;margin-left:0;margin-right:0;margin-top:0px;margin-bottom:0px;text-indent:0;vertical-align:middle;direction:ltr;&quot;&gt;&lt;font style=&quot;font-size:11.29px;font-family:Arial;color:#000000;direction:ltr;letter-spacing:0px;line-height:120%;opacity:1&quot;&gt;P2&amp;nbsp;&lt;/font&gt;&lt;/p&gt;&lt;/div&gt;" style="verticalAlign=middle;align=right;overflow=width;vsdxID=13;fillColor=none;gradientColor=none;shape=stencil(nZBLDoAgDERP0z3SIyjew0SURgSD+Lu9kMZoXLhwN9O+tukAlrNpJg1SzDH4QW/URgNYgZTkjA4UkwJUgGXng+6DX1zLfmoymdXo17xh5zmRJ6Q42BWCfc2oJfdAr+Yv+AP9Cb7OJ3H/2JG1HNGz/84klThPVCc=);strokeColor=none;spacingTop=-3;spacingBottom=-3;spacingLeft=-2;spacingRight=-2;points=[];labelBackgroundColor=none;rounded=0;html=1;whiteSpace=wrap;" parent="wtOsM4EygqMZWqcvGImy-24" vertex="1">
          <mxGeometry width="63" height="12" as="geometry" />
        </mxCell>
        <mxCell id="wtOsM4EygqMZWqcvGImy-26" style="vsdxID=14;fillColor=none;gradientColor=none;strokeColor=none;points=[];labelBackgroundColor=none;rounded=0;html=1;whiteSpace=wrap;" parent="wtOsM4EygqMZWqcvGImy-24" vertex="1">
          <mxGeometry x="63" y="2" width="26" height="8" as="geometry" />
        </mxCell>
        <mxCell id="wtOsM4EygqMZWqcvGImy-27" style="vsdxID=17;fillColor=#000000;gradientColor=none;shape=stencil(nZBLDoAgDERP0z3SIyjew0SURgSD+Lu9kMZoXLhwN9O+tukAlrNpJg1SzDH4QW/URgNYgZTkjA4UkwJUgGXng+6DX1zLfmoymdXo17xh5zmRJ6Q42BWCfc2oJfdAr+Yv+AP9Cb7OJ3H/2JG1HNGz/84klThPVCc=);strokeColor=none;points=[];labelBackgroundColor=none;rounded=0;html=1;whiteSpace=wrap;" parent="wtOsM4EygqMZWqcvGImy-26" vertex="1">
          <mxGeometry x="14" width="8" height="8" as="geometry" />
        </mxCell>
        <mxCell id="wtOsM4EygqMZWqcvGImy-28" style="vsdxID=18;fillColor=#000000;gradientColor=none;shape=stencil(vVHLDsIgEPwajiQI6RfU+h8bu22JCGRB2/69kG1iazx58DazM/vIjjBtmiCi0CplCjecbZ8nYc5Ca+snJJsLEqYTph0C4Ujh4XvmEaqzont41gkL96naodXKrGF6YSfQtUi0OXXDVlqPfJNP6usotUhYbJIUMmQb/GGrAxpRljVycDBuc1hKM2LclX8/7H9nFfB+82Cd45T2+mcspcSRmu4F);strokeColor=none;points=[];labelBackgroundColor=none;rounded=0;html=1;whiteSpace=wrap;" parent="wtOsM4EygqMZWqcvGImy-26" vertex="1">
          <mxGeometry x="18" width="8" height="8" as="geometry" />
        </mxCell>
        <mxCell id="wtOsM4EygqMZWqcvGImy-29" value="" style="vsdxID=15;edgeStyle=none;startArrow=none;endArrow=none;startSize=5;endSize=5;strokeColor=#000000;spacingTop=0;spacingBottom=0;spacingLeft=0;spacingRight=0;verticalAlign=middle;html=1;labelBackgroundColor=none;rounded=0;" parent="wtOsM4EygqMZWqcvGImy-26" edge="1">
          <mxGeometry relative="1" as="geometry">
            <Array as="points" />
            <mxPoint y="4" as="sourcePoint" />
            <mxPoint x="14" y="4" as="targetPoint" />
          </mxGeometry>
        </mxCell>
        <mxCell id="wtOsM4EygqMZWqcvGImy-30" value="" style="vsdxID=16;edgeStyle=none;startArrow=none;endArrow=none;startSize=5;endSize=5;strokeColor=#000000;spacingTop=0;spacingBottom=0;spacingLeft=0;spacingRight=0;verticalAlign=middle;html=1;labelBackgroundColor=none;rounded=0;" parent="wtOsM4EygqMZWqcvGImy-26" edge="1">
          <mxGeometry relative="1" as="geometry">
            <Array as="points" />
            <mxPoint y="2" as="sourcePoint" />
            <mxPoint y="6" as="targetPoint" />
          </mxGeometry>
        </mxCell>
        <UserObject label="" Row_1="" id="wtOsM4EygqMZWqcvGImy-31">
          <mxCell style="vsdxID=5;fillColor=none;gradientColor=none;strokeColor=none;points=[];labelBackgroundColor=none;rounded=0;html=1;whiteSpace=wrap;rotation=-180;" parent="1" vertex="1">
            <mxGeometry x="190" y="302" width="89" height="12" as="geometry" />
          </mxCell>
        </UserObject>
        <mxCell id="wtOsM4EygqMZWqcvGImy-32" value="&lt;div style=&quot;font-size: 1px&quot;&gt;&lt;p style=&quot;margin: 0px; text-indent: 0px; vertical-align: middle; direction: ltr;&quot;&gt;&lt;font style=&quot;font-size:11.29px;font-family:Arial;color:#000000;direction:ltr;letter-spacing:0px;line-height:120%;opacity:1&quot;&gt;&amp;nbsp;N1&lt;/font&gt;&lt;/p&gt;&lt;/div&gt;" style="verticalAlign=middle;align=left;overflow=width;vsdxID=13;fillColor=none;gradientColor=none;shape=stencil(nZBLDoAgDERP0z3SIyjew0SURgSD+Lu9kMZoXLhwN9O+tukAlrNpJg1SzDH4QW/URgNYgZTkjA4UkwJUgGXng+6DX1zLfmoymdXo17xh5zmRJ6Q42BWCfc2oJfdAr+Yv+AP9Cb7OJ3H/2JG1HNGz/84klThPVCc=);strokeColor=none;spacingTop=-3;spacingBottom=-3;spacingLeft=-2;spacingRight=-2;points=[];labelBackgroundColor=none;rounded=0;html=1;whiteSpace=wrap;rotation=0;" parent="wtOsM4EygqMZWqcvGImy-31" vertex="1">
          <mxGeometry x="26" width="63" height="12" as="geometry" />
        </mxCell>
        <mxCell id="wtOsM4EygqMZWqcvGImy-33" style="vsdxID=14;fillColor=none;gradientColor=none;strokeColor=none;points=[];labelBackgroundColor=none;rounded=0;html=1;whiteSpace=wrap;rotation=-180;" parent="wtOsM4EygqMZWqcvGImy-31" vertex="1">
          <mxGeometry y="2" width="26" height="8" as="geometry" />
        </mxCell>
        <mxCell id="wtOsM4EygqMZWqcvGImy-34" style="vsdxID=17;fillColor=#000000;gradientColor=none;shape=stencil(nZBLDoAgDERP0z3SIyjew0SURgSD+Lu9kMZoXLhwN9O+tukAlrNpJg1SzDH4QW/URgNYgZTkjA4UkwJUgGXng+6DX1zLfmoymdXo17xh5zmRJ6Q42BWCfc2oJfdAr+Yv+AP9Cb7OJ3H/2JG1HNGz/84klThPVCc=);strokeColor=none;points=[];labelBackgroundColor=none;rounded=0;html=1;whiteSpace=wrap;rotation=-180;" parent="wtOsM4EygqMZWqcvGImy-33" vertex="1">
          <mxGeometry x="4" width="8" height="8" as="geometry" />
        </mxCell>
        <mxCell id="wtOsM4EygqMZWqcvGImy-35" style="vsdxID=18;fillColor=#000000;gradientColor=none;shape=stencil(vVHLDsIgEPwajiQI6RfU+h8bu22JCGRB2/69kG1iazx58DazM/vIjjBtmiCi0CplCjecbZ8nYc5Ca+snJJsLEqYTph0C4Ujh4XvmEaqzont41gkL96naodXKrGF6YSfQtUi0OXXDVlqPfJNP6usotUhYbJIUMmQb/GGrAxpRljVycDBuc1hKM2LclX8/7H9nFfB+82Cd45T2+mcspcSRmu4F);strokeColor=none;points=[];labelBackgroundColor=none;rounded=0;html=1;whiteSpace=wrap;rotation=-180;" parent="wtOsM4EygqMZWqcvGImy-33" vertex="1">
          <mxGeometry width="8" height="8" as="geometry" />
        </mxCell>
        <mxCell id="wtOsM4EygqMZWqcvGImy-36" value="" style="vsdxID=15;edgeStyle=none;startArrow=none;endArrow=none;startSize=5;endSize=5;strokeColor=#000000;spacingTop=0;spacingBottom=0;spacingLeft=0;spacingRight=0;verticalAlign=middle;html=1;labelBackgroundColor=none;rounded=0;" parent="wtOsM4EygqMZWqcvGImy-33" edge="1">
          <mxGeometry relative="1" as="geometry">
            <Array as="points" />
            <mxPoint x="26" y="4" as="sourcePoint" />
            <mxPoint x="12" y="4" as="targetPoint" />
          </mxGeometry>
        </mxCell>
        <mxCell id="wtOsM4EygqMZWqcvGImy-37" value="" style="vsdxID=16;edgeStyle=none;startArrow=none;endArrow=none;startSize=5;endSize=5;strokeColor=#000000;spacingTop=0;spacingBottom=0;spacingLeft=0;spacingRight=0;verticalAlign=middle;html=1;labelBackgroundColor=none;rounded=0;" parent="wtOsM4EygqMZWqcvGImy-33" edge="1">
          <mxGeometry relative="1" as="geometry">
            <Array as="points" />
            <mxPoint x="26" y="6" as="sourcePoint" />
            <mxPoint x="26" y="2" as="targetPoint" />
          </mxGeometry>
        </mxCell>
        <UserObject label="" Row_1="" id="wtOsM4EygqMZWqcvGImy-38">
          <mxCell style="vsdxID=5;fillColor=none;gradientColor=none;strokeColor=none;points=[];labelBackgroundColor=none;rounded=0;html=1;whiteSpace=wrap;rotation=-180;" parent="1" vertex="1">
            <mxGeometry x="190" y="266" width="89" height="12" as="geometry" />
          </mxCell>
        </UserObject>
        <mxCell id="wtOsM4EygqMZWqcvGImy-39" value="&lt;div style=&quot;font-size: 1px&quot;&gt;&lt;p style=&quot;margin: 0px; text-indent: 0px; vertical-align: middle; direction: ltr;&quot;&gt;&lt;font style=&quot;font-size:11.29px;font-family:Arial;color:#000000;direction:ltr;letter-spacing:0px;line-height:120%;opacity:1&quot;&gt;&amp;nbsp;N2&lt;/font&gt;&lt;/p&gt;&lt;/div&gt;" style="verticalAlign=middle;align=left;overflow=width;vsdxID=13;fillColor=none;gradientColor=none;shape=stencil(nZBLDoAgDERP0z3SIyjew0SURgSD+Lu9kMZoXLhwN9O+tukAlrNpJg1SzDH4QW/URgNYgZTkjA4UkwJUgGXng+6DX1zLfmoymdXo17xh5zmRJ6Q42BWCfc2oJfdAr+Yv+AP9Cb7OJ3H/2JG1HNGz/84klThPVCc=);strokeColor=none;spacingTop=-3;spacingBottom=-3;spacingLeft=-2;spacingRight=-2;points=[];labelBackgroundColor=none;rounded=0;html=1;whiteSpace=wrap;rotation=0;" parent="wtOsM4EygqMZWqcvGImy-38" vertex="1">
          <mxGeometry x="26" width="63" height="12" as="geometry" />
        </mxCell>
        <mxCell id="wtOsM4EygqMZWqcvGImy-40" style="vsdxID=14;fillColor=none;gradientColor=none;strokeColor=none;points=[];labelBackgroundColor=none;rounded=0;html=1;whiteSpace=wrap;rotation=-180;" parent="wtOsM4EygqMZWqcvGImy-38" vertex="1">
          <mxGeometry y="2" width="26" height="8" as="geometry" />
        </mxCell>
        <mxCell id="wtOsM4EygqMZWqcvGImy-41" style="vsdxID=17;fillColor=#000000;gradientColor=none;shape=stencil(nZBLDoAgDERP0z3SIyjew0SURgSD+Lu9kMZoXLhwN9O+tukAlrNpJg1SzDH4QW/URgNYgZTkjA4UkwJUgGXng+6DX1zLfmoymdXo17xh5zmRJ6Q42BWCfc2oJfdAr+Yv+AP9Cb7OJ3H/2JG1HNGz/84klThPVCc=);strokeColor=none;points=[];labelBackgroundColor=none;rounded=0;html=1;whiteSpace=wrap;rotation=-180;" parent="wtOsM4EygqMZWqcvGImy-40" vertex="1">
          <mxGeometry x="4" width="8" height="8" as="geometry" />
        </mxCell>
        <mxCell id="wtOsM4EygqMZWqcvGImy-42" style="vsdxID=18;fillColor=#000000;gradientColor=none;shape=stencil(vVHLDsIgEPwajiQI6RfU+h8bu22JCGRB2/69kG1iazx58DazM/vIjjBtmiCi0CplCjecbZ8nYc5Ca+snJJsLEqYTph0C4Ujh4XvmEaqzont41gkL96naodXKrGF6YSfQtUi0OXXDVlqPfJNP6usotUhYbJIUMmQb/GGrAxpRljVycDBuc1hKM2LclX8/7H9nFfB+82Cd45T2+mcspcSRmu4F);strokeColor=none;points=[];labelBackgroundColor=none;rounded=0;html=1;whiteSpace=wrap;rotation=-180;" parent="wtOsM4EygqMZWqcvGImy-40" vertex="1">
          <mxGeometry width="8" height="8" as="geometry" />
        </mxCell>
        <mxCell id="wtOsM4EygqMZWqcvGImy-43" value="" style="vsdxID=15;edgeStyle=none;startArrow=none;endArrow=none;startSize=5;endSize=5;strokeColor=#000000;spacingTop=0;spacingBottom=0;spacingLeft=0;spacingRight=0;verticalAlign=middle;html=1;labelBackgroundColor=none;rounded=0;" parent="wtOsM4EygqMZWqcvGImy-40" edge="1">
          <mxGeometry relative="1" as="geometry">
            <Array as="points" />
            <mxPoint x="26" y="4" as="sourcePoint" />
            <mxPoint x="12" y="4" as="targetPoint" />
          </mxGeometry>
        </mxCell>
        <mxCell id="wtOsM4EygqMZWqcvGImy-44" value="" style="vsdxID=16;edgeStyle=none;startArrow=none;endArrow=none;startSize=5;endSize=5;strokeColor=#000000;spacingTop=0;spacingBottom=0;spacingLeft=0;spacingRight=0;verticalAlign=middle;html=1;labelBackgroundColor=none;rounded=0;" parent="wtOsM4EygqMZWqcvGImy-40" edge="1">
          <mxGeometry relative="1" as="geometry">
            <Array as="points" />
            <mxPoint x="26" y="6" as="sourcePoint" />
            <mxPoint x="26" y="2" as="targetPoint" />
          </mxGeometry>
        </mxCell>
        <mxCell id="wtOsM4EygqMZWqcvGImy-45" style="vsdxID=5;edgeStyle=none;startArrow=none;endArrow=none;startSize=5;endSize=5;strokeWidth=2;strokeColor=#000000;spacingTop=0;spacingBottom=0;spacingLeft=0;spacingRight=0;verticalAlign=middle;html=1;labelBackgroundColor=none;rounded=0;" parent="1" edge="1">
          <mxGeometry y="-1118" relative="1" as="geometry">
            <mxPoint y="-1118" as="offset" />
            <Array as="points" />
            <mxPoint x="160" y="300" as="sourcePoint" />
            <mxPoint x="420" y="300" as="targetPoint" />
          </mxGeometry>
        </mxCell>
        <mxCell id="wtOsM4EygqMZWqcvGImy-46" style="vsdxID=5;edgeStyle=none;startArrow=none;endArrow=none;startSize=5;endSize=5;strokeWidth=2;strokeColor=#000000;spacingTop=0;spacingBottom=0;spacingLeft=0;spacingRight=0;verticalAlign=middle;html=1;labelBackgroundColor=none;rounded=0;" parent="1" edge="1">
          <mxGeometry y="-1118" relative="1" as="geometry">
            <mxPoint y="-1118" as="offset" />
            <Array as="points" />
            <mxPoint x="60" y="300" as="sourcePoint" />
            <mxPoint x="160" y="300" as="targetPoint" />
          </mxGeometry>
        </mxCell>
        <mxCell id="wtOsM4EygqMZWqcvGImy-47" style="vsdxID=5;edgeStyle=none;startArrow=none;endArrow=none;startSize=5;endSize=5;strokeWidth=2;strokeColor=#000000;spacingTop=0;spacingBottom=0;spacingLeft=0;spacingRight=0;verticalAlign=middle;html=1;labelBackgroundColor=none;rounded=0;" parent="1" edge="1">
          <mxGeometry y="-1118" relative="1" as="geometry">
            <mxPoint y="-1118" as="offset" />
            <Array as="points" />
            <mxPoint x="420" y="300" as="sourcePoint" />
            <mxPoint x="520" y="300" as="targetPoint" />
          </mxGeometry>
        </mxCell>
        <mxCell id="wtOsM4EygqMZWqcvGImy-50" style="vsdxID=5;fillColor=none;gradientColor=none;strokeColor=none;flipV=1;points=[];labelBackgroundColor=none;rounded=0;html=1;whiteSpace=wrap;rotation=-180;" parent="1" vertex="1">
          <mxGeometry x="408" y="288" width="12" height="12" as="geometry" />
        </mxCell>
        <mxCell id="wtOsM4EygqMZWqcvGImy-51" style="vsdxID=6;rotation=-90;fillColor=#000000;gradientColor=none;shape=stencil(jZBLDoAgDERP0z3SIyjew0SURgSD+Lu9kMb4Wbmb6bw2bQHL2TSTBinmGPygN2qjAaxASnJGB4pJASrAsvNB98EvrmU/NZnMavRrnrBzn8gdUhzsCsG+ZtSSe6BX+At+o7/Bz8wk7sU7spbvfubfQ1OJn4TqBA==);strokeColor=#000000;flipV=1;points=[];labelBackgroundColor=none;rounded=0;html=1;whiteSpace=wrap;" parent="wtOsM4EygqMZWqcvGImy-50" vertex="1">
          <mxGeometry x="4" y="4" width="8" height="8" as="geometry" />
        </mxCell>
        <mxCell id="wtOsM4EygqMZWqcvGImy-52" value="" style="vsdxID=7;edgeStyle=none;startArrow=none;endArrow=none;startSize=5;endSize=5;strokeColor=#000000;spacingTop=0;spacingBottom=0;spacingLeft=0;spacingRight=0;verticalAlign=middle;html=1;labelBackgroundColor=none;rounded=0;" parent="wtOsM4EygqMZWqcvGImy-50" edge="1">
          <mxGeometry relative="1" as="geometry">
            <Array as="points" />
            <mxPoint y="12" as="sourcePoint" />
            <mxPoint as="targetPoint" />
          </mxGeometry>
        </mxCell>
        <mxCell id="wtOsM4EygqMZWqcvGImy-53" style="vsdxID=5;fillColor=none;gradientColor=none;strokeColor=none;flipV=1;points=[];labelBackgroundColor=none;rounded=0;html=1;whiteSpace=wrap;rotation=-180;" parent="1" vertex="1">
          <mxGeometry x="140" y="288" width="12" height="12" as="geometry" />
        </mxCell>
        <mxCell id="wtOsM4EygqMZWqcvGImy-54" style="vsdxID=6;rotation=90;fillColor=#000000;gradientColor=none;shape=stencil(jZBLDoAgDERP0z3SIyjew0SURgSD+Lu9kMb4Wbmb6bw2bQHL2TSTBinmGPygN2qjAaxASnJGB4pJASrAsvNB98EvrmU/NZnMavRrnrBzn8gdUhzsCsG+ZtSSe6BX+At+o7/Bz8wk7sU7spbvfubfQ1OJn4TqBA==);strokeColor=#000000;flipH=1;flipV=1;points=[];labelBackgroundColor=none;rounded=0;html=1;whiteSpace=wrap;" parent="wtOsM4EygqMZWqcvGImy-53" vertex="1">
          <mxGeometry y="4" width="8" height="8" as="geometry" />
        </mxCell>
        <mxCell id="wtOsM4EygqMZWqcvGImy-55" value="" style="vsdxID=7;edgeStyle=none;startArrow=none;endArrow=none;startSize=5;endSize=5;strokeColor=#000000;spacingTop=0;spacingBottom=0;spacingLeft=0;spacingRight=0;verticalAlign=middle;html=1;labelBackgroundColor=none;rounded=0;" parent="wtOsM4EygqMZWqcvGImy-53" edge="1">
          <mxGeometry relative="1" as="geometry">
            <Array as="points" />
            <mxPoint x="12" y="12" as="sourcePoint" />
            <mxPoint x="12" as="targetPoint" />
          </mxGeometry>
        </mxCell>
        <UserObject label="&lt;div style=&quot;font-size: 1px&quot;&gt;&lt;font style=&quot;font-size:7.06px;font-family:Arial;color:#000000;direction:ltr;letter-spacing:0px;line-height:120%;opacity:1&quot;&gt;1&lt;/font&gt;&lt;/div&gt;" Row_1="" id="wtOsM4EygqMZWqcvGImy-56">
          <mxCell style="verticalAlign=middle;align=center;overflow=width;vsdxID=5;fillColor=none;gradientColor=none;shape=stencil(nZBLDoAgDERP0z3SIyjew0SURgSD+Lu9kMZoXLhwN9O+tukAlrNpJg1SzDH4QW/URgNYgZTkjA4UkwJUgGXng+6DX1zLfmoymdXo17xh5zmRJ6Q42BWCfc2oJfdAr+Yv+AP9Cb7OJ3H/2JG1HNGz/84klThPVCc=);strokeColor=none;spacingTop=-3;spacingBottom=-3;spacingLeft=-3;spacingRight=-3;points=[];labelBackgroundColor=none;rounded=0;html=1;whiteSpace=wrap;" parent="1" vertex="1">
            <mxGeometry x="134" y="302" width="24" height="6" as="geometry" />
          </mxCell>
        </UserObject>
        <UserObject label="&lt;div style=&quot;font-size: 1px&quot;&gt;&lt;font style=&quot;font-size:7.06px;font-family:Arial;color:#000000;direction:ltr;letter-spacing:0px;line-height:120%;opacity:1&quot;&gt;2&lt;/font&gt;&lt;/div&gt;" Row_1="" id="wtOsM4EygqMZWqcvGImy-57">
          <mxCell style="verticalAlign=middle;align=center;overflow=width;vsdxID=5;fillColor=none;gradientColor=none;shape=stencil(nZBLDoAgDERP0z3SIyjew0SURgSD+Lu9kMZoXLhwN9O+tukAlrNpJg1SzDH4QW/URgNYgZTkjA4UkwJUgGXng+6DX1zLfmoymdXo17xh5zmRJ6Q42BWCfc2oJfdAr+Yv+AP9Cb7OJ3H/2JG1HNGz/84klThPVCc=);strokeColor=none;spacingTop=-3;spacingBottom=-3;spacingLeft=-3;spacingRight=-3;points=[];labelBackgroundColor=none;rounded=0;html=1;whiteSpace=wrap;" parent="1" vertex="1">
            <mxGeometry x="402" y="302" width="24" height="6" as="geometry" />
          </mxCell>
        </UserObject>
        <mxCell id="wtOsM4EygqMZWqcvGImy-58" value="&lt;div style=&quot;font-size: 1px&quot;&gt;&lt;font style=&quot;font-size:11.29px;font-family:Arial;color:#000000;direction:ltr;letter-spacing:0px;line-height:120%;opacity:1&quot;&gt;1&lt;br/&gt;&lt;/font&gt;&lt;/div&gt;" style="verticalAlign=middle;align=center;overflow=width;vsdxID=5;fillColor=none;gradientColor=none;strokeColor=none;spacingTop=-3;spacingBottom=-3;spacingLeft=-3;spacingRight=-3;points=[];labelBackgroundColor=#FFFFFF;rounded=0;html=1;whiteSpace=wrap;" parent="1" vertex="1">
          <mxGeometry x="267" y="292" width="16" height="16" as="geometry" />
        </mxCell>
        <mxCell id="wtOsM4EygqMZWqcvGImy-59" value="&lt;div style=&quot;font-size: 1px&quot;&gt;&lt;font style=&quot;font-size:11.29px;font-family:Arial;color:#000000;direction:ltr;letter-spacing:0px;line-height:120%;opacity:1&quot;&gt;2&lt;br&gt;&lt;/font&gt;&lt;/div&gt;" style="verticalAlign=middle;align=center;overflow=width;vsdxID=5;fillColor=none;gradientColor=none;strokeColor=none;spacingTop=-3;spacingBottom=-3;spacingLeft=-3;spacingRight=-3;points=[];labelBackgroundColor=#FFFFFF;rounded=0;html=1;whiteSpace=wrap;" parent="1" vertex="1">
          <mxGeometry x="267" y="272" width="16" height="16" as="geometry" />
        </mxCell>
        <mxCell id="wtOsM4EygqMZWqcvGImy-60" style="vsdxID=5;fillColor=none;gradientColor=none;strokeColor=none;points=[];labelBackgroundColor=none;rounded=0;html=1;whiteSpace=wrap;" parent="1" vertex="1">
          <mxGeometry x="120" y="304" width="12" height="4" as="geometry" />
        </mxCell>
        <mxCell id="wtOsM4EygqMZWqcvGImy-61" style="vsdxID=6;fillColor=#000000;gradientColor=none;shape=stencil(vVHLDsIgEPwajiQI6RfU+h8bu22JCGRB2/69kG1iazx58DazM/vIjjBtmiCi0CplCjecbZ8nYc5Ca+snJJsLEqYTph0C4Ujh4XvmEaqzont41gkL96naodXKrGF6YSfQtUi0OXXDVlqPfJNP6usotUhYbJIUMmQb/GGrAxpRljVycDBuc1hKM2LclX8/7H9nFfB+82Cd45T2+mcspcSRmu4F);strokeColor=#000000;points=[];labelBackgroundColor=none;rounded=0;html=1;whiteSpace=wrap;" parent="wtOsM4EygqMZWqcvGImy-60" vertex="1">
          <mxGeometry x="1" width="4" height="4" as="geometry" />
        </mxCell>
        <mxCell id="wtOsM4EygqMZWqcvGImy-62" style="vsdxID=7;fillColor=#000000;gradientColor=none;shape=stencil(vVHLDsIgEPwajiQI6RfU+h8bu22JCGRB2/69kG1iazx58DazM/vIjjBtmiCi0CplCjecbZ8nYc5Ca+snJJsLEqYTph0C4Ujh4XvmEaqzont41gkL96naodXKrGF6YSfQtUi0OXXDVlqPfJNP6usotUhYbJIUMmQb/GGrAxpRljVycDBuc1hKM2LclX8/7H9nFfB+82Cd45T2+mcspcSRmu4F);strokeColor=#000000;points=[];labelBackgroundColor=none;rounded=0;html=1;whiteSpace=wrap;" parent="wtOsM4EygqMZWqcvGImy-60" vertex="1">
          <mxGeometry x="6" width="4" height="4" as="geometry" />
        </mxCell>
        <mxCell id="wtOsM4EygqMZWqcvGImy-63" style="vsdxID=8;edgeStyle=none;startArrow=none;endArrow=none;startSize=5;endSize=5;strokeColor=#000000;spacingTop=0;spacingBottom=0;spacingLeft=0;spacingRight=0;verticalAlign=middle;html=1;labelBackgroundColor=none;rounded=0;" parent="wtOsM4EygqMZWqcvGImy-60" edge="1">
          <mxGeometry relative="1" as="geometry">
            <mxPoint as="offset" />
            <Array as="points" />
            <mxPoint y="2" as="sourcePoint" />
            <mxPoint x="12" y="2" as="targetPoint" />
          </mxGeometry>
        </mxCell>
        <mxCell id="wtOsM4EygqMZWqcvGImy-64" style="vsdxID=5;fillColor=none;gradientColor=none;strokeColor=none;points=[];labelBackgroundColor=none;rounded=0;html=1;whiteSpace=wrap;" parent="1" vertex="1">
          <mxGeometry x="160" y="304" width="12" height="4" as="geometry" />
        </mxCell>
        <mxCell id="wtOsM4EygqMZWqcvGImy-65" style="vsdxID=6;fillColor=#000000;gradientColor=none;shape=stencil(vVHLDsIgEPwajiQI6RfU+h8bu22JCGRB2/69kG1iazx58DazM/vIjjBtmiCi0CplCjecbZ8nYc5Ca+snJJsLEqYTph0C4Ujh4XvmEaqzont41gkL96naodXKrGF6YSfQtUi0OXXDVlqPfJNP6usotUhYbJIUMmQb/GGrAxpRljVycDBuc1hKM2LclX8/7H9nFfB+82Cd45T2+mcspcSRmu4F);strokeColor=#000000;points=[];labelBackgroundColor=none;rounded=0;html=1;whiteSpace=wrap;" parent="wtOsM4EygqMZWqcvGImy-64" vertex="1">
          <mxGeometry x="1" width="4" height="4" as="geometry" />
        </mxCell>
        <mxCell id="wtOsM4EygqMZWqcvGImy-66" style="vsdxID=7;fillColor=#000000;gradientColor=none;shape=stencil(vVHLDsIgEPwajiQI6RfU+h8bu22JCGRB2/69kG1iazx58DazM/vIjjBtmiCi0CplCjecbZ8nYc5Ca+snJJsLEqYTph0C4Ujh4XvmEaqzont41gkL96naodXKrGF6YSfQtUi0OXXDVlqPfJNP6usotUhYbJIUMmQb/GGrAxpRljVycDBuc1hKM2LclX8/7H9nFfB+82Cd45T2+mcspcSRmu4F);strokeColor=#000000;points=[];labelBackgroundColor=none;rounded=0;html=1;whiteSpace=wrap;" parent="wtOsM4EygqMZWqcvGImy-64" vertex="1">
          <mxGeometry x="6" width="4" height="4" as="geometry" />
        </mxCell>
        <mxCell id="wtOsM4EygqMZWqcvGImy-67" style="vsdxID=8;edgeStyle=none;startArrow=none;endArrow=none;startSize=5;endSize=5;strokeColor=#000000;spacingTop=0;spacingBottom=0;spacingLeft=0;spacingRight=0;verticalAlign=middle;html=1;labelBackgroundColor=none;rounded=0;" parent="wtOsM4EygqMZWqcvGImy-64" edge="1">
          <mxGeometry relative="1" as="geometry">
            <mxPoint as="offset" />
            <Array as="points" />
            <mxPoint y="2" as="sourcePoint" />
            <mxPoint x="12" y="2" as="targetPoint" />
          </mxGeometry>
        </mxCell>
        <mxCell id="wtOsM4EygqMZWqcvGImy-68" style="vsdxID=5;fillColor=none;gradientColor=none;strokeColor=none;points=[];labelBackgroundColor=none;rounded=0;html=1;whiteSpace=wrap;" parent="1" vertex="1">
          <mxGeometry x="160" y="272" width="12" height="4" as="geometry" />
        </mxCell>
        <mxCell id="wtOsM4EygqMZWqcvGImy-69" style="vsdxID=6;fillColor=#000000;gradientColor=none;shape=stencil(vVHLDsIgEPwajiQI6RfU+h8bu22JCGRB2/69kG1iazx58DazM/vIjjBtmiCi0CplCjecbZ8nYc5Ca+snJJsLEqYTph0C4Ujh4XvmEaqzont41gkL96naodXKrGF6YSfQtUi0OXXDVlqPfJNP6usotUhYbJIUMmQb/GGrAxpRljVycDBuc1hKM2LclX8/7H9nFfB+82Cd45T2+mcspcSRmu4F);strokeColor=#000000;points=[];labelBackgroundColor=none;rounded=0;html=1;whiteSpace=wrap;" parent="wtOsM4EygqMZWqcvGImy-68" vertex="1">
          <mxGeometry x="1" width="4" height="4" as="geometry" />
        </mxCell>
        <mxCell id="wtOsM4EygqMZWqcvGImy-70" style="vsdxID=7;fillColor=#000000;gradientColor=none;shape=stencil(vVHLDsIgEPwajiQI6RfU+h8bu22JCGRB2/69kG1iazx58DazM/vIjjBtmiCi0CplCjecbZ8nYc5Ca+snJJsLEqYTph0C4Ujh4XvmEaqzont41gkL96naodXKrGF6YSfQtUi0OXXDVlqPfJNP6usotUhYbJIUMmQb/GGrAxpRljVycDBuc1hKM2LclX8/7H9nFfB+82Cd45T2+mcspcSRmu4F);strokeColor=#000000;points=[];labelBackgroundColor=none;rounded=0;html=1;whiteSpace=wrap;" parent="wtOsM4EygqMZWqcvGImy-68" vertex="1">
          <mxGeometry x="6" width="4" height="4" as="geometry" />
        </mxCell>
        <mxCell id="wtOsM4EygqMZWqcvGImy-71" style="vsdxID=8;edgeStyle=none;startArrow=none;endArrow=none;startSize=5;endSize=5;strokeColor=#000000;spacingTop=0;spacingBottom=0;spacingLeft=0;spacingRight=0;verticalAlign=middle;html=1;labelBackgroundColor=none;rounded=0;" parent="wtOsM4EygqMZWqcvGImy-68" edge="1">
          <mxGeometry relative="1" as="geometry">
            <mxPoint as="offset" />
            <Array as="points" />
            <mxPoint y="2" as="sourcePoint" />
            <mxPoint x="12" y="2" as="targetPoint" />
          </mxGeometry>
        </mxCell>
        <mxCell id="wtOsM4EygqMZWqcvGImy-72" style="vsdxID=5;fillColor=none;gradientColor=none;strokeColor=none;points=[];labelBackgroundColor=none;rounded=0;html=1;whiteSpace=wrap;" parent="1" vertex="1">
          <mxGeometry x="388" y="304" width="12" height="4" as="geometry" />
        </mxCell>
        <mxCell id="wtOsM4EygqMZWqcvGImy-73" style="vsdxID=6;fillColor=#000000;gradientColor=none;shape=stencil(vVHLDsIgEPwajiQI6RfU+h8bu22JCGRB2/69kG1iazx58DazM/vIjjBtmiCi0CplCjecbZ8nYc5Ca+snJJsLEqYTph0C4Ujh4XvmEaqzont41gkL96naodXKrGF6YSfQtUi0OXXDVlqPfJNP6usotUhYbJIUMmQb/GGrAxpRljVycDBuc1hKM2LclX8/7H9nFfB+82Cd45T2+mcspcSRmu4F);strokeColor=#000000;points=[];labelBackgroundColor=none;rounded=0;html=1;whiteSpace=wrap;" parent="wtOsM4EygqMZWqcvGImy-72" vertex="1">
          <mxGeometry x="1" width="4" height="4" as="geometry" />
        </mxCell>
        <mxCell id="wtOsM4EygqMZWqcvGImy-74" style="vsdxID=7;fillColor=#000000;gradientColor=none;shape=stencil(vVHLDsIgEPwajiQI6RfU+h8bu22JCGRB2/69kG1iazx58DazM/vIjjBtmiCi0CplCjecbZ8nYc5Ca+snJJsLEqYTph0C4Ujh4XvmEaqzont41gkL96naodXKrGF6YSfQtUi0OXXDVlqPfJNP6usotUhYbJIUMmQb/GGrAxpRljVycDBuc1hKM2LclX8/7H9nFfB+82Cd45T2+mcspcSRmu4F);strokeColor=#000000;points=[];labelBackgroundColor=none;rounded=0;html=1;whiteSpace=wrap;" parent="wtOsM4EygqMZWqcvGImy-72" vertex="1">
          <mxGeometry x="6" width="4" height="4" as="geometry" />
        </mxCell>
        <mxCell id="wtOsM4EygqMZWqcvGImy-75" style="vsdxID=8;edgeStyle=none;startArrow=none;endArrow=none;startSize=5;endSize=5;strokeColor=#000000;spacingTop=0;spacingBottom=0;spacingLeft=0;spacingRight=0;verticalAlign=middle;html=1;labelBackgroundColor=none;rounded=0;" parent="wtOsM4EygqMZWqcvGImy-72" edge="1">
          <mxGeometry relative="1" as="geometry">
            <mxPoint as="offset" />
            <Array as="points" />
            <mxPoint y="2" as="sourcePoint" />
            <mxPoint x="12" y="2" as="targetPoint" />
          </mxGeometry>
        </mxCell>
        <mxCell id="wtOsM4EygqMZWqcvGImy-76" style="vsdxID=5;fillColor=none;gradientColor=none;strokeColor=none;points=[];labelBackgroundColor=none;rounded=0;html=1;whiteSpace=wrap;" parent="1" vertex="1">
          <mxGeometry x="388" y="272" width="12" height="4" as="geometry" />
        </mxCell>
        <mxCell id="wtOsM4EygqMZWqcvGImy-77" style="vsdxID=6;fillColor=#000000;gradientColor=none;shape=stencil(vVHLDsIgEPwajiQI6RfU+h8bu22JCGRB2/69kG1iazx58DazM/vIjjBtmiCi0CplCjecbZ8nYc5Ca+snJJsLEqYTph0C4Ujh4XvmEaqzont41gkL96naodXKrGF6YSfQtUi0OXXDVlqPfJNP6usotUhYbJIUMmQb/GGrAxpRljVycDBuc1hKM2LclX8/7H9nFfB+82Cd45T2+mcspcSRmu4F);strokeColor=#000000;points=[];labelBackgroundColor=none;rounded=0;html=1;whiteSpace=wrap;" parent="wtOsM4EygqMZWqcvGImy-76" vertex="1">
          <mxGeometry x="1" width="4" height="4" as="geometry" />
        </mxCell>
        <mxCell id="wtOsM4EygqMZWqcvGImy-78" style="vsdxID=7;fillColor=#000000;gradientColor=none;shape=stencil(vVHLDsIgEPwajiQI6RfU+h8bu22JCGRB2/69kG1iazx58DazM/vIjjBtmiCi0CplCjecbZ8nYc5Ca+snJJsLEqYTph0C4Ujh4XvmEaqzont41gkL96naodXKrGF6YSfQtUi0OXXDVlqPfJNP6usotUhYbJIUMmQb/GGrAxpRljVycDBuc1hKM2LclX8/7H9nFfB+82Cd45T2+mcspcSRmu4F);strokeColor=#000000;points=[];labelBackgroundColor=none;rounded=0;html=1;whiteSpace=wrap;" parent="wtOsM4EygqMZWqcvGImy-76" vertex="1">
          <mxGeometry x="6" width="4" height="4" as="geometry" />
        </mxCell>
        <mxCell id="wtOsM4EygqMZWqcvGImy-79" style="vsdxID=8;edgeStyle=none;startArrow=none;endArrow=none;startSize=5;endSize=5;strokeColor=#000000;spacingTop=0;spacingBottom=0;spacingLeft=0;spacingRight=0;verticalAlign=middle;html=1;labelBackgroundColor=none;rounded=0;" parent="wtOsM4EygqMZWqcvGImy-76" edge="1">
          <mxGeometry relative="1" as="geometry">
            <mxPoint as="offset" />
            <Array as="points" />
            <mxPoint y="2" as="sourcePoint" />
            <mxPoint x="12" y="2" as="targetPoint" />
          </mxGeometry>
        </mxCell>
        <mxCell id="wtOsM4EygqMZWqcvGImy-80" style="vsdxID=5;fillColor=none;gradientColor=none;strokeColor=none;points=[];labelBackgroundColor=none;rounded=0;html=1;whiteSpace=wrap;" parent="1" vertex="1">
          <mxGeometry x="428" y="303" width="12" height="4" as="geometry" />
        </mxCell>
        <mxCell id="wtOsM4EygqMZWqcvGImy-81" style="vsdxID=6;fillColor=#000000;gradientColor=none;shape=stencil(vVHLDsIgEPwajiQI6RfU+h8bu22JCGRB2/69kG1iazx58DazM/vIjjBtmiCi0CplCjecbZ8nYc5Ca+snJJsLEqYTph0C4Ujh4XvmEaqzont41gkL96naodXKrGF6YSfQtUi0OXXDVlqPfJNP6usotUhYbJIUMmQb/GGrAxpRljVycDBuc1hKM2LclX8/7H9nFfB+82Cd45T2+mcspcSRmu4F);strokeColor=#000000;points=[];labelBackgroundColor=none;rounded=0;html=1;whiteSpace=wrap;" parent="wtOsM4EygqMZWqcvGImy-80" vertex="1">
          <mxGeometry x="1" width="4" height="4" as="geometry" />
        </mxCell>
        <mxCell id="wtOsM4EygqMZWqcvGImy-82" style="vsdxID=7;fillColor=#000000;gradientColor=none;shape=stencil(vVHLDsIgEPwajiQI6RfU+h8bu22JCGRB2/69kG1iazx58DazM/vIjjBtmiCi0CplCjecbZ8nYc5Ca+snJJsLEqYTph0C4Ujh4XvmEaqzont41gkL96naodXKrGF6YSfQtUi0OXXDVlqPfJNP6usotUhYbJIUMmQb/GGrAxpRljVycDBuc1hKM2LclX8/7H9nFfB+82Cd45T2+mcspcSRmu4F);strokeColor=#000000;points=[];labelBackgroundColor=none;rounded=0;html=1;whiteSpace=wrap;" parent="wtOsM4EygqMZWqcvGImy-80" vertex="1">
          <mxGeometry x="6" width="4" height="4" as="geometry" />
        </mxCell>
        <mxCell id="wtOsM4EygqMZWqcvGImy-83" style="vsdxID=8;edgeStyle=none;startArrow=none;endArrow=none;startSize=5;endSize=5;strokeColor=#000000;spacingTop=0;spacingBottom=0;spacingLeft=0;spacingRight=0;verticalAlign=middle;html=1;labelBackgroundColor=none;rounded=0;" parent="wtOsM4EygqMZWqcvGImy-80" edge="1">
          <mxGeometry relative="1" as="geometry">
            <mxPoint as="offset" />
            <Array as="points" />
            <mxPoint y="2" as="sourcePoint" />
            <mxPoint x="12" y="2" as="targetPoint" />
          </mxGeometry>
        </mxCell>
        <UserObject label="&lt;div style=&quot;font-size: 1px&quot;&gt;&lt;font style=&quot;font-size:7.06px;font-family:Arial;color:#000000;direction:ltr;letter-spacing:0px;line-height:120%;opacity:1&quot;&gt;102&lt;/font&gt;&lt;/div&gt;" Row_1="" id="wtOsM4EygqMZWqcvGImy-84">
          <mxCell style="verticalAlign=middle;align=center;overflow=width;vsdxID=5;fillColor=none;gradientColor=none;shape=stencil(nZBLDoAgDERP0z3SIyjew0SURgSD+Lu9kMZoXLhwN9O+tukAlrNpJg1SzDH4QW/URgNYgZTkjA4UkwJUgGXng+6DX1zLfmoymdXo17xh5zmRJ6Q42BWCfc2oJfdAr+Yv+AP9Cb7OJ3H/2JG1HNGz/84klThPVCc=);strokeColor=none;spacingTop=-3;spacingBottom=-3;spacingLeft=-3;spacingRight=-3;points=[];labelBackgroundColor=none;rounded=0;html=1;whiteSpace=wrap;" parent="1" vertex="1">
            <mxGeometry x="240" y="281" width="24" height="10" as="geometry" />
          </mxCell>
        </UserObject>
        <UserObject label="&lt;div style=&quot;font-size: 1px&quot;&gt;&lt;font style=&quot;font-size:7.06px;font-family:Arial;color:#000000;direction:ltr;letter-spacing:0px;line-height:120%;opacity:1&quot;&gt;101&lt;/font&gt;&lt;/div&gt;" Row_1="" id="wtOsM4EygqMZWqcvGImy-85">
          <mxCell style="verticalAlign=middle;align=center;overflow=width;vsdxID=5;fillColor=none;gradientColor=none;shape=stencil(nZBLDoAgDERP0z3SIyjew0SURgSD+Lu9kMZoXLhwN9O+tukAlrNpJg1SzDH4QW/URgNYgZTkjA4UkwJUgGXng+6DX1zLfmoymdXo17xh5zmRJ6Q42BWCfc2oJfdAr+Yv+AP9Cb7OJ3H/2JG1HNGz/84klThPVCc=);strokeColor=none;spacingTop=-3;spacingBottom=-3;spacingLeft=-3;spacingRight=-3;points=[];labelBackgroundColor=none;rounded=0;html=1;whiteSpace=wrap;" parent="1" vertex="1">
            <mxGeometry x="240" y="301" width="24" height="10" as="geometry" />
          </mxCell>
        </UserObject>
        <UserObject label="&lt;div style=&quot;font-size: 1px&quot;&gt;&lt;font style=&quot;font-size:7.06px;font-family:Arial;color:#000000;direction:ltr;letter-spacing:0px;line-height:120%;opacity:1&quot;&gt;B1/W1&lt;/font&gt;&lt;/div&gt;" Row_1="" id="wtOsM4EygqMZWqcvGImy-87">
          <mxCell style="verticalAlign=middle;align=center;overflow=width;vsdxID=5;fillColor=none;gradientColor=none;shape=stencil(nZBLDoAgDERP0z3SIyjew0SURgSD+Lu9kMZoXLhwN9O+tukAlrNpJg1SzDH4QW/URgNYgZTkjA4UkwJUgGXng+6DX1zLfmoymdXo17xh5zmRJ6Q42BWCfc2oJfdAr+Yv+AP9Cb7OJ3H/2JG1HNGz/84klThPVCc=);strokeColor=none;spacingTop=-3;spacingBottom=-3;spacingLeft=-3;spacingRight=-3;points=[];labelBackgroundColor=none;rounded=0;html=1;whiteSpace=wrap;" parent="1" vertex="1">
            <mxGeometry x="114" y="310" width="24" height="10" as="geometry" />
          </mxCell>
        </UserObject>
        <UserObject label="&lt;div style=&quot;font-size: 1px&quot;&gt;&lt;font style=&quot;font-size:7.06px;font-family:Arial;color:#000000;direction:ltr;letter-spacing:0px;line-height:120%;opacity:1&quot;&gt;W1/G101&lt;/font&gt;&lt;/div&gt;" Row_1="" id="wtOsM4EygqMZWqcvGImy-88">
          <mxCell style="verticalAlign=middle;align=center;overflow=width;vsdxID=5;fillColor=none;gradientColor=none;shape=stencil(nZBLDoAgDERP0z3SIyjew0SURgSD+Lu9kMZoXLhwN9O+tukAlrNpJg1SzDH4QW/URgNYgZTkjA4UkwJUgGXng+6DX1zLfmoymdXo17xh5zmRJ6Q42BWCfc2oJfdAr+Yv+AP9Cb7OJ3H/2JG1HNGz/84klThPVCc=);strokeColor=none;spacingTop=-3;spacingBottom=-3;spacingLeft=-3;spacingRight=-3;points=[];labelBackgroundColor=none;rounded=0;html=1;whiteSpace=wrap;" parent="1" vertex="1">
            <mxGeometry x="148" y="310" width="36" height="10" as="geometry" />
          </mxCell>
        </UserObject>
        <UserObject label="&lt;div style=&quot;font-size: 1px&quot;&gt;&lt;font style=&quot;font-size:7.06px;font-family:Arial;color:#000000;direction:ltr;letter-spacing:0px;line-height:120%;opacity:1&quot;&gt;W1/G102&lt;/font&gt;&lt;/div&gt;" Row_1="" id="wtOsM4EygqMZWqcvGImy-89">
          <mxCell style="verticalAlign=middle;align=center;overflow=width;vsdxID=5;fillColor=none;gradientColor=none;shape=stencil(nZBLDoAgDERP0z3SIyjew0SURgSD+Lu9kMZoXLhwN9O+tukAlrNpJg1SzDH4QW/URgNYgZTkjA4UkwJUgGXng+6DX1zLfmoymdXo17xh5zmRJ6Q42BWCfc2oJfdAr+Yv+AP9Cb7OJ3H/2JG1HNGz/84klThPVCc=);strokeColor=none;spacingTop=-3;spacingBottom=-3;spacingLeft=-3;spacingRight=-3;points=[];labelBackgroundColor=none;rounded=0;html=1;whiteSpace=wrap;" parent="1" vertex="1">
            <mxGeometry x="148" y="259" width="36" height="10" as="geometry" />
          </mxCell>
        </UserObject>
        <UserObject label="&lt;div style=&quot;font-size: 1px&quot;&gt;&lt;font style=&quot;font-size:7.06px;font-family:Arial;color:#000000;direction:ltr;letter-spacing:0px;line-height:120%;opacity:1&quot;&gt;G102/W2&lt;/font&gt;&lt;/div&gt;" Row_1="" id="wtOsM4EygqMZWqcvGImy-90">
          <mxCell style="verticalAlign=middle;align=center;overflow=width;vsdxID=5;fillColor=none;gradientColor=none;shape=stencil(nZBLDoAgDERP0z3SIyjew0SURgSD+Lu9kMZoXLhwN9O+tukAlrNpJg1SzDH4QW/URgNYgZTkjA4UkwJUgGXng+6DX1zLfmoymdXo17xh5zmRJ6Q42BWCfc2oJfdAr+Yv+AP9Cb7OJ3H/2JG1HNGz/84klThPVCc=);strokeColor=none;spacingTop=-3;spacingBottom=-3;spacingLeft=-3;spacingRight=-3;points=[];labelBackgroundColor=none;rounded=0;html=1;whiteSpace=wrap;" parent="1" vertex="1">
            <mxGeometry x="376" y="259" width="36" height="10" as="geometry" />
          </mxCell>
        </UserObject>
        <UserObject label="&lt;div style=&quot;font-size: 1px&quot;&gt;&lt;font style=&quot;font-size:7.06px;font-family:Arial;color:#000000;direction:ltr;letter-spacing:0px;line-height:120%;opacity:1&quot;&gt;G101/W2&lt;/font&gt;&lt;/div&gt;" Row_1="" id="wtOsM4EygqMZWqcvGImy-91">
          <mxCell style="verticalAlign=middle;align=center;overflow=width;vsdxID=5;fillColor=none;gradientColor=none;shape=stencil(nZBLDoAgDERP0z3SIyjew0SURgSD+Lu9kMZoXLhwN9O+tukAlrNpJg1SzDH4QW/URgNYgZTkjA4UkwJUgGXng+6DX1zLfmoymdXo17xh5zmRJ6Q42BWCfc2oJfdAr+Yv+AP9Cb7OJ3H/2JG1HNGz/84klThPVCc=);strokeColor=none;spacingTop=-3;spacingBottom=-3;spacingLeft=-3;spacingRight=-3;points=[];labelBackgroundColor=none;rounded=0;html=1;whiteSpace=wrap;" parent="1" vertex="1">
            <mxGeometry x="376" y="310" width="36" height="10" as="geometry" />
          </mxCell>
        </UserObject>
        <UserObject label="&lt;div style=&quot;font-size: 1px&quot;&gt;&lt;font style=&quot;font-size:7.06px;font-family:Arial;color:#000000;direction:ltr;letter-spacing:0px;line-height:120%;opacity:1&quot;&gt;W2/B2&lt;/font&gt;&lt;/div&gt;" Row_1="" id="wtOsM4EygqMZWqcvGImy-92">
          <mxCell style="verticalAlign=middle;align=center;overflow=width;vsdxID=5;fillColor=none;gradientColor=none;shape=stencil(nZBLDoAgDERP0z3SIyjew0SURgSD+Lu9kMZoXLhwN9O+tukAlrNpJg1SzDH4QW/URgNYgZTkjA4UkwJUgGXng+6DX1zLfmoymdXo17xh5zmRJ6Q42BWCfc2oJfdAr+Yv+AP9Cb7OJ3H/2JG1HNGz/84klThPVCc=);strokeColor=none;spacingTop=-3;spacingBottom=-3;spacingLeft=-3;spacingRight=-3;points=[];labelBackgroundColor=none;rounded=0;html=1;whiteSpace=wrap;" parent="1" vertex="1">
            <mxGeometry x="416" y="310" width="36" height="10" as="geometry" />
          </mxCell>
        </UserObject>
        <mxCell id="wtOsM4EygqMZWqcvGImy-93" value="v.u.n. links" style="text;html=1;align=right;verticalAlign=middle;whiteSpace=wrap;rounded=0;" parent="1" vertex="1">
          <mxGeometry x="-10" y="285" width="70" height="30" as="geometry" />
        </mxCell>
        <mxCell id="wtOsM4EygqMZWqcvGImy-94" value="v.u.n. rechts" style="text;html=1;align=center;verticalAlign=middle;whiteSpace=wrap;rounded=0;" parent="1" vertex="1">
          <mxGeometry x="520" y="285" width="70" height="30" as="geometry" />
        </mxCell>
      </root>
    </mxGraphModel>
  </diagram>
  <diagram id="rLW3mn1gu1OqKpcFvKVD" name="Graph">
    <mxGraphModel dx="1834" dy="808" grid="1" gridSize="10" guides="1" tooltips="1" connect="1" arrows="1" fold="1" page="0" pageScale="1" pageWidth="827" pageHeight="1169" math="0" shadow="0">
      <root>
        <mxCell id="0" />
        <mxCell id="1" parent="0" />
        <mxCell id="wHFSM_oYudzOZGSlA6EF-1" value="N1" style="ellipse;whiteSpace=wrap;html=1;aspect=fixed;" vertex="1" parent="1">
          <mxGeometry x="90" y="330" width="20" height="20" as="geometry" />
        </mxCell>
        <mxCell id="wHFSM_oYudzOZGSlA6EF-2" value="L" style="ellipse;whiteSpace=wrap;html=1;aspect=fixed;" vertex="1" parent="1">
          <mxGeometry x="-30" y="330" width="20" height="20" as="geometry" />
        </mxCell>
        <mxCell id="wHFSM_oYudzOZGSlA6EF-3" value="A" style="ellipse;whiteSpace=wrap;html=1;aspect=fixed;" vertex="1" parent="1">
          <mxGeometry x="10" y="330" width="20" height="20" as="geometry" />
        </mxCell>
        <mxCell id="wHFSM_oYudzOZGSlA6EF-4" value="N2" style="ellipse;whiteSpace=wrap;html=1;aspect=fixed;" vertex="1" parent="1">
          <mxGeometry x="90" y="300" width="20" height="20" as="geometry" />
        </mxCell>
        <mxCell id="wHFSM_oYudzOZGSlA6EF-5" value="P1" style="ellipse;whiteSpace=wrap;html=1;aspect=fixed;" vertex="1" parent="1">
          <mxGeometry x="130" y="330" width="20" height="20" as="geometry" />
        </mxCell>
        <mxCell id="wHFSM_oYudzOZGSlA6EF-6" value="P2" style="ellipse;whiteSpace=wrap;html=1;aspect=fixed;" vertex="1" parent="1">
          <mxGeometry x="130" y="300" width="20" height="20" as="geometry" />
        </mxCell>
        <mxCell id="wHFSM_oYudzOZGSlA6EF-7" value="F" style="ellipse;whiteSpace=wrap;html=1;aspect=fixed;" vertex="1" parent="1">
          <mxGeometry x="210" y="330" width="20" height="20" as="geometry" />
        </mxCell>
        <mxCell id="wHFSM_oYudzOZGSlA6EF-8" value="R" style="ellipse;whiteSpace=wrap;html=1;aspect=fixed;" vertex="1" parent="1">
          <mxGeometry x="250" y="330" width="20" height="20" as="geometry" />
        </mxCell>
        <mxCell id="wHFSM_oYudzOZGSlA6EF-9" value="" style="endArrow=none;html=1;rounded=0;" edge="1" parent="1" source="wHFSM_oYudzOZGSlA6EF-7" target="wHFSM_oYudzOZGSlA6EF-8">
          <mxGeometry width="50" height="50" relative="1" as="geometry">
            <mxPoint x="30" y="270" as="sourcePoint" />
            <mxPoint x="80" y="220" as="targetPoint" />
          </mxGeometry>
        </mxCell>
        <mxCell id="wHFSM_oYudzOZGSlA6EF-10" value="" style="endArrow=none;html=1;rounded=0;" edge="1" parent="1" source="wHFSM_oYudzOZGSlA6EF-20" target="wHFSM_oYudzOZGSlA6EF-7">
          <mxGeometry width="50" height="50" relative="1" as="geometry">
            <mxPoint x="40" y="280" as="sourcePoint" />
            <mxPoint x="90" y="230" as="targetPoint" />
          </mxGeometry>
        </mxCell>
        <mxCell id="wHFSM_oYudzOZGSlA6EF-11" value="" style="endArrow=none;html=1;rounded=0;" edge="1" parent="1" source="wHFSM_oYudzOZGSlA6EF-1" target="wHFSM_oYudzOZGSlA6EF-5">
          <mxGeometry width="50" height="50" relative="1" as="geometry">
            <mxPoint x="50" y="290" as="sourcePoint" />
            <mxPoint x="100" y="240" as="targetPoint" />
          </mxGeometry>
        </mxCell>
        <mxCell id="wHFSM_oYudzOZGSlA6EF-12" value="" style="endArrow=none;html=1;rounded=0;" edge="1" parent="1" source="wHFSM_oYudzOZGSlA6EF-18" target="wHFSM_oYudzOZGSlA6EF-1">
          <mxGeometry width="50" height="50" relative="1" as="geometry">
            <mxPoint x="60" y="300" as="sourcePoint" />
            <mxPoint x="110" y="250" as="targetPoint" />
          </mxGeometry>
        </mxCell>
        <mxCell id="wHFSM_oYudzOZGSlA6EF-13" value="" style="endArrow=none;html=1;rounded=0;" edge="1" parent="1" source="wHFSM_oYudzOZGSlA6EF-2" target="wHFSM_oYudzOZGSlA6EF-3">
          <mxGeometry width="50" height="50" relative="1" as="geometry">
            <mxPoint x="30" y="310" as="sourcePoint" />
            <mxPoint x="80" y="260" as="targetPoint" />
          </mxGeometry>
        </mxCell>
        <mxCell id="wHFSM_oYudzOZGSlA6EF-14" value="" style="endArrow=none;html=1;rounded=0;" edge="1" parent="1" source="wHFSM_oYudzOZGSlA6EF-18" target="wHFSM_oYudzOZGSlA6EF-4">
          <mxGeometry width="50" height="50" relative="1" as="geometry">
            <mxPoint x="50" y="310" as="sourcePoint" />
            <mxPoint x="100" y="300" as="targetPoint" />
          </mxGeometry>
        </mxCell>
        <mxCell id="wHFSM_oYudzOZGSlA6EF-15" value="" style="endArrow=none;html=1;rounded=0;" edge="1" parent="1" source="wHFSM_oYudzOZGSlA6EF-4" target="wHFSM_oYudzOZGSlA6EF-6">
          <mxGeometry width="50" height="50" relative="1" as="geometry">
            <mxPoint x="120" y="300" as="sourcePoint" />
            <mxPoint x="170" y="250" as="targetPoint" />
          </mxGeometry>
        </mxCell>
        <mxCell id="wHFSM_oYudzOZGSlA6EF-16" value="" style="endArrow=none;html=1;rounded=0;" edge="1" parent="1" source="wHFSM_oYudzOZGSlA6EF-6" target="wHFSM_oYudzOZGSlA6EF-20">
          <mxGeometry width="50" height="50" relative="1" as="geometry">
            <mxPoint x="150" y="310" as="sourcePoint" />
            <mxPoint x="200" y="260" as="targetPoint" />
          </mxGeometry>
        </mxCell>
        <mxCell id="wHFSM_oYudzOZGSlA6EF-17" value="" style="endArrow=none;html=1;rounded=0;" edge="1" parent="1" source="wHFSM_oYudzOZGSlA6EF-3" target="wHFSM_oYudzOZGSlA6EF-18">
          <mxGeometry width="50" height="50" relative="1" as="geometry">
            <mxPoint x="30" y="340" as="sourcePoint" />
            <mxPoint x="90" y="340" as="targetPoint" />
          </mxGeometry>
        </mxCell>
        <mxCell id="wHFSM_oYudzOZGSlA6EF-18" value="W1" style="ellipse;whiteSpace=wrap;html=1;aspect=fixed;" vertex="1" parent="1">
          <mxGeometry x="50" y="330" width="20" height="20" as="geometry" />
        </mxCell>
        <mxCell id="wHFSM_oYudzOZGSlA6EF-19" value="" style="endArrow=none;html=1;rounded=0;" edge="1" parent="1" source="wHFSM_oYudzOZGSlA6EF-5" target="wHFSM_oYudzOZGSlA6EF-20">
          <mxGeometry width="50" height="50" relative="1" as="geometry">
            <mxPoint x="150" y="340" as="sourcePoint" />
            <mxPoint x="210" y="340" as="targetPoint" />
          </mxGeometry>
        </mxCell>
        <mxCell id="wHFSM_oYudzOZGSlA6EF-20" value="W2" style="ellipse;whiteSpace=wrap;html=1;aspect=fixed;" vertex="1" parent="1">
          <mxGeometry x="170" y="330" width="20" height="20" as="geometry" />
        </mxCell>
      </root>
    </mxGraphModel>
  </diagram>
  <diagram id="7Wdds4ekHojoDDjyx8nH" name="Adjazenzliste">
    <mxGraphModel dx="1834" dy="808" grid="1" gridSize="10" guides="1" tooltips="1" connect="1" arrows="1" fold="1" page="0" pageScale="1" pageWidth="827" pageHeight="1169" math="0" shadow="0">
      <root>
        <mxCell id="0" />
        <mxCell id="1" parent="0" />
        <mxCell id="ziSw4H1lIwROhcZ_gvwi-1" value="A : L , W1&lt;br&gt;F : R , W2&lt;br&gt;N1: W1, P1&lt;br&gt;N2: W1, P2&lt;br&gt;P1: W2, N1&lt;br&gt;P2: W2, N2&lt;br&gt;W1: A , N1&lt;br&gt;W2: F , N2&lt;br&gt;L : A&lt;br&gt;R : F" style="text;html=1;align=left;verticalAlign=middle;whiteSpace=wrap;rounded=0;fontFamily=Courier New;" vertex="1" parent="1">
          <mxGeometry x="-80" y="40" width="80" height="140" as="geometry" />
        </mxCell>
      </root>
    </mxGraphModel>
  </diagram>
</mxfile>
